<?xml version="1.0" encoding="UTF-8"?><svg id="Layer_1" xmlns="http://www.w3.org/2000/svg" xmlns:xlink="http://www.w3.org/1999/xlink" viewBox="0 0 147.4 79.37"><defs><style>.cls-1{mask:url(#mask);}.cls-2{stroke:#8bb63b;stroke-miterlimit:10;stroke-width:.07px;}.cls-2,.cls-3{fill:#8bb63b;}.cls-4{fill:#008cc6;}.cls-5{fill:#009cd8;}.cls-6{fill:#24306b;}.cls-7{fill:url(#Dégradé_sans_nom_13);}.cls-8{fill:url(#Dégradé_sans_nom_3);}.cls-9{fill:url(#Dégradé_sans_nom_13-2);}.cls-10{fill:url(#Nouvelle_nuance_de_dégradé_2-3);}.cls-11{fill:url(#Nouvelle_nuance_de_dégradé_2-4);}.cls-12{fill:url(#Nouvelle_nuance_de_dégradé_2-2);}.cls-13{fill:url(#Nouvelle_nuance_de_dégradé_2);}</style><linearGradient id="Dégradé_sans_nom_3" x1="122.39" y1="22.63" x2="134.56" y2="22.63" gradientUnits="userSpaceOnUse"><stop offset="0" stop-color="#009cd8"/><stop offset=".38" stop-color="#1166a2"/><stop offset=".71" stop-color="#1e3f7a"/><stop offset=".88" stop-color="#24306b"/></linearGradient><filter id="luminosity-noclip" x="55.17" y="-8395.07" width="19.02" height="32766" color-interpolation-filters="sRGB" filterUnits="userSpaceOnUse"><feFlood flood-color="#fff" result="bg"/><feBlend in="SourceGraphic" in2="bg"/></filter><mask id="mask" x="55.17" y="-8395.07" width="19.02" height="32766" maskUnits="userSpaceOnUse"/><linearGradient id="Dégradé_sans_nom_13" x1="68.39" y1="47.53" x2="68.39" y2="47.53" gradientUnits="userSpaceOnUse"><stop offset="0" stop-color="#009cd8"/><stop offset=".46" stop-color="#009cd8"/><stop offset=".57" stop-color="#0e5f97"/><stop offset=".66" stop-color="#193267"/><stop offset=".7" stop-color="#1e2155"/><stop offset="1" stop-color="#1e2155"/></linearGradient><linearGradient id="Dégradé_sans_nom_13-2" x1="64.55" y1="503.94" x2="64.9" y2="503.94" gradientTransform="translate(-20337.59 158866.23) scale(315.17 -315.17)" xlink:href="#Dégradé_sans_nom_13"/><linearGradient id="Nouvelle_nuance_de_dégradé_2" x1="74.19" y1="46.62" x2="74.19" y2="46.62" gradientUnits="userSpaceOnUse"><stop offset="0" stop-color="#75ad3f"/><stop offset=".45" stop-color="#75ad3f"/><stop offset=".49" stop-color="#68a94d"/><stop offset=".56" stop-color="#48a072"/><stop offset=".66" stop-color="#1491ae"/><stop offset=".7" stop-color="#008cc6"/><stop offset="1" stop-color="#008cc6"/></linearGradient><linearGradient id="Nouvelle_nuance_de_dégradé_2-2" x1="64.55" y1="503.93" x2="64.9" y2="503.93" gradientTransform="translate(-21164.2 165339.95) scale(328 -328)" xlink:href="#Nouvelle_nuance_de_dégradé_2"/><linearGradient id="Nouvelle_nuance_de_dégradé_2-3" x1="64.55" y1="503.94" x2="64.9" y2="503.94" gradientTransform="translate(-21164.2 165339.95) scale(328 -328)" xlink:href="#Nouvelle_nuance_de_dégradé_2"/><linearGradient id="Nouvelle_nuance_de_dégradé_2-4" x1="64.76" y1="503.94" x2="64.89" y2="503.94" gradientTransform="translate(-21164.2 165339.95) scale(328 -328)" xlink:href="#Nouvelle_nuance_de_dégradé_2"/></defs><g><path class="cls-2" d="m8.19,69.96v-6.49h2.14c1.99,0,2.47,1.12,2.47,3.14s-.43,3.36-2.47,3.36h-2.14Zm2.14-5.57h-1.14v4.65h1.14c1.24,0,1.43-1.01,1.43-2.43s-.19-2.22-1.43-2.22Z"/><path class="cls-2" d="m14.25,63.46h3.9v.92h-2.89v1.84h2.35v.91h-2.35v1.9h2.89v.93h-3.9v-6.49Z"/><path class="cls-2" d="m20.52,67.94v2.02h-1v-6.49h2.26c1.41,0,2.1.72,2.1,2.18s-.69,2.29-2.1,2.29h-1.26Zm1.25-.91c.75,0,1.08-.48,1.08-1.38s-.33-1.27-1.08-1.27h-1.25v2.65h1.25Z"/><path class="cls-2" d="m25.13,69.96v-6.49h1v5.56h2.46v.94h-3.46Z"/><path class="cls-2" d="m29.31,66.74c0-2.17.59-3.38,2.52-3.38s2.51,1.2,2.51,3.38-.58,3.32-2.51,3.32-2.52-1.13-2.52-3.32Zm3.99,0c0-1.61-.28-2.47-1.47-2.47s-1.48.85-1.48,2.47.28,2.4,1.48,2.4,1.47-.75,1.47-2.4Z"/><path class="cls-2" d="m37.8,69.96h-1.01v-2.67l-1.94-3.82h1.13l1.31,2.79,1.32-2.79h1.12l-1.92,3.82v2.67Z"/><path class="cls-2" d="m40.76,63.46h1.74l1.38,5.07,1.38-5.07h1.75v6.49h-1.01v-5.33h-.14l-1.46,5.06h-1.05l-1.46-5.06h-.14v5.33h-1v-6.49Z"/><path class="cls-2" d="m48.7,63.46h3.9v.92h-2.89v1.84h2.35v.91h-2.35v1.9h2.89v.93h-3.9v-6.49Z"/><path class="cls-2" d="m53.97,63.46h1.75l1.88,5.57h.14v-5.57h1v6.49h-1.71l-1.92-5.57h-.13v5.57h-1v-6.49Z"/><path class="cls-2" d="m59.84,63.46h4.51v.94h-1.74v5.56h-1.01v-5.56h-1.76v-.94Z"/><path class="cls-2" d="m67.72,63.46h1.74l1.38,5.07,1.38-5.07h1.75v6.49h-1.01v-5.33h-.14l-1.46,5.06h-1.05l-1.46-5.06h-.14v5.33h-1v-6.49Z"/><path class="cls-2" d="m76.66,63.46h1.99l1.53,6.49h-1.01l-.33-1.39h-2.37l-.33,1.39h-1l1.52-6.49Zm0,4.17h1.97l-.76-3.29h-.45l-.77,3.29Z"/><path class="cls-2" d="m81.35,63.46h1.75l1.88,5.57h.14v-5.57h1v6.49h-1.71l-1.92-5.57h-.13v5.57h-1v-6.49Z"/><path class="cls-2" d="m88.81,63.46h1.99l1.53,6.49h-1.01l-.33-1.39h-2.37l-.33,1.39h-1l1.52-6.49Zm0,4.17h1.97l-.76-3.29h-.45l-.77,3.29Z"/><path class="cls-2" d="m95.91,66.54h1.76v3.3c-.08.02-1.32.22-2.06.22-1.97,0-2.47-1.19-2.47-3.35,0-2.28.6-3.36,2.43-3.36.95,0,2.1.26,2.1.26l-.04.83s-1.09-.15-1.91-.15c-1.24,0-1.55.59-1.55,2.42s.26,2.43,1.52,2.43c.41,0,.87-.06.98-.09v-1.58h-.77v-.93Z"/><path class="cls-2" d="m99.2,63.46h3.9v.92h-2.89v1.84h2.35v.91h-2.35v1.9h2.89v.93h-3.9v-6.49Z"/><path class="cls-2" d="m105.47,67.64v2.31h-1v-6.49h2.34c1.36,0,2.09.63,2.09,2.07,0,.92-.35,1.55-1.01,1.88l1.02,2.55h-1.1l-.89-2.31h-1.45Zm1.34-3.27h-1.34v2.36h1.36c.76,0,1.05-.52,1.05-1.19,0-.74-.34-1.17-1.06-1.17Z"/></g><polygon class="cls-8" points="127.31 34.38 122.39 19.95 134.56 10.88 127.31 34.38"/><g><polygon class="cls-3" points="131.79 25.4 139.52 25.29 133.2 20.82 131.79 25.4"/><polygon class="cls-3" points="125.65 15.48 119.36 11.03 121.84 18.33 125.65 15.48"/></g><polygon class="cls-6" points="114.78 25.61 124.28 25.5 122.39 19.95 114.78 25.61"/><path class="cls-5" d="m19.09,41.6c-4.84-.84-5.88-1.28-5.88-2.91,0-2.02,1.33-2.72,4.3-2.72s8.79.79,8.79.79l.1-4.49s-5.68-1.09-9.29-1.09c-4.89,0-9.24,2.07-9.24,7.66,0,5.23,2.77,6.42,8.2,7.31,4.89.79,5.73,1.33,5.73,3.06,0,.21-.01.4-.04.59.65,0,1.3,0,1.95,0,1.14,0,2.27,0,3.4,0,.01-.24.02-.48.02-.73,0-4.94-2.12-6.42-8.05-7.46Z"/><path class="cls-3" d="m23.72,49.8c-.65,0-1.3,0-1.95,0-.25,1.72-1.69,2.33-4.9,2.33-2.52,0-8.44-.79-8.44-.79l-.2,4.49s5.73,1.09,9.14,1.09c5.86,0,9.46-1.9,9.76-7.12-1.13,0-2.27,0-3.4,0Z"/><path class="cls-5" d="m51.71,42.44c0-7.7-3.46-11.31-10.37-11.31s-10.72,4.1-10.72,13.14c0,2.11.17,3.94.53,5.5,1.85-.02,3.69-.04,5.52-.07-.41-.9-.6-2.03-.62-3.41h15.31l.35-3.85Zm-15.71-.3c.05-4.74,1.68-6.57,5.33-6.57s5.09,1.63,5.09,6.57h-10.42Z"/><path class="cls-3" d="m50.77,51.78s-5.19.44-9.09.44c-2.67,0-4.23-.84-5.01-2.52-1.83.03-3.67.05-5.52.07,1.13,4.87,4.13,7.14,9.74,7.14,4.35,0,9.98-1.14,9.98-1.14l-.1-4Z"/><g class="cls-1"><g><polygon class="cls-7" points="68.39 47.53 68.39 47.53 68.39 47.53 68.39 47.53"/><path class="cls-9" d="m66.38,41.6c-4.84-.84-5.88-1.28-5.88-2.91,0-2.02,1.33-2.72,4.3-2.72s8.79.79,8.79.79l.1-4.49s-5.68-1.09-9.29-1.09c-4.89,0-9.24,2.07-9.24,7.66,0,5.23,2.77,6.42,8.2,7.31,2.81.45,4.28.83,5.02,1.39h0c1.94-.27,3.88-.57,5.8-.91-.7-3.04-3-4.17-7.81-5.02Z"/></g></g><g><polygon class="cls-13" points="74.19 46.62 74.19 46.62 74.19 46.62 74.19 46.62"/><path class="cls-12" d="m74.19,46.62c-1.92.34-3.86.64-5.8.91.55.42.71.94.71,1.68,0,2.17-1.38,2.91-4.94,2.91-2.52,0-8.44-.79-8.44-.79l-.2,4.49s5.73,1.09,9.14,1.09c6.12,0,9.78-2.07,9.78-7.85,0-.93-.08-1.74-.24-2.44h0Z"/></g><path class="cls-6" d="m111.12,31.13c-5.65,0-8.18,2.22-8.47,7.14,4.45-1.93,8.84-4.17,13.19-6.79-1.51-.2-3.17-.35-4.73-.35Z"/><path class="cls-4" d="m115.85,31.48c-4.35,2.62-8.75,4.86-13.19,6.79-.02.32-.03.66-.03,1.01v17.53c2.62-.29,5.35-1.35,5.35-4.97l-.02-10.78v-1.78c0-2.72,1.19-3.56,3.6-3.56,3.31,0,9.28.49,9.28.49l.06-1.15v-2.68c-.54-.12-2.59-.58-5.06-.9Z"/><path class="cls-6" d="m86.2,41.6c-3.98.33-6.59,1.43-7.63,4.18,6.56-1.36,13-3.17,19.34-5.58v-.92c0-5.63-2.47-8.15-8.5-8.15-4.54,0-9.93,1.28-9.93,1.28l.2,3.8s5.98-.49,9.29-.49c2.42,0,3.6.84,3.6,3.56v1.78l-6.37.54Z"/><g><path class="cls-10" d="m78.57,45.78c-.34.9-.52,1.99-.52,3.28,0,5.14,2.47,7.85,7.36,7.85,4,0,7.95-1.83,7.95-1.83,1.37,1.08,2.7,1.57,4.55,1.74v-16.62c-6.34,2.41-12.78,4.22-19.34,5.58Zm14,5.65s-3.31,1.09-6.12,1.09c-2.07,0-3.01-1.38-3.01-3.61s1.14-3.31,3.41-3.51l5.73-.54v6.57Z"/><polygon class="cls-11" points="97.9 40.21 97.91 56.83 97.91 40.21 97.9 40.21"/></g><g><path class="cls-5" d="m13.08,16.56c-.51.1-1.31.22-2,.22-2.17,0-2.65-1.32-2.65-3.71s.47-3.75,2.65-3.75c.74,0,1.54.14,2,.23l-.03.68c-.47-.08-1.32-.19-1.89-.19-1.61,0-1.9.96-1.9,3.03s.26,2.98,1.92,2.98c.59,0,1.36-.09,1.86-.19l.03.69Z"/><path class="cls-5" d="m13.74,13.08c0-2.39.62-3.76,2.86-3.76s2.87,1.35,2.87,3.76-.62,3.7-2.87,3.7-2.86-1.27-2.86-3.7Zm4.89,0c0-1.96-.38-3.05-2.03-3.05s-2.03,1.08-2.03,3.05.36,2.98,2.03,2.98,2.03-.94,2.03-2.98Z"/><path class="cls-5" d="m20.7,9.42h1.51l2.77,6.53h.22v-6.53h.8v7.25h-1.48l-2.82-6.53h-.2v6.53h-.81v-7.25Z"/><path class="cls-5" d="m31.6,10.2s-1.46-.18-2.06-.18c-1.03,0-1.57.37-1.57,1.18,0,.94.5,1.1,1.77,1.38,1.44.32,2.08.68,2.08,1.95,0,1.6-.88,2.23-2.31,2.23-.86,0-2.29-.23-2.29-.23l.08-.67s1.42.19,2.17.19c1.03,0,1.55-.45,1.55-1.46,0-.82-.43-1.05-1.61-1.28-1.5-.33-2.25-.68-2.25-2.06s.92-1.95,2.34-1.95c.86,0,2.19.21,2.19.21l-.07.68Z"/><path class="cls-5" d="m32.67,13.08c0-2.39.62-3.76,2.86-3.76s2.87,1.35,2.87,3.76-.62,3.7-2.87,3.7-2.86-1.27-2.86-3.7Zm4.89,0c0-1.96-.38-3.05-2.03-3.05s-2.03,1.08-2.03,3.05.36,2.98,2.03,2.98,2.03-.94,2.03-2.98Z"/><path class="cls-5" d="m40.43,13.9v2.77h-.81v-7.25h2.68c1.52,0,2.31.67,2.31,2.2,0,1.07-.42,1.81-1.33,2.11l1.39,2.94h-.89l-1.31-2.77h-2.05Zm1.87-3.76h-1.87v3.05h1.88c1.09,0,1.48-.65,1.48-1.56,0-.99-.47-1.49-1.49-1.49Z"/><path class="cls-5" d="m44.97,9.42h5.24v.72h-2.21v6.52h-.8v-6.52h-2.23v-.72Z"/><path class="cls-5" d="m50.99,9.42h.81v7.25h-.81v-7.25Z"/><path class="cls-5" d="m55.77,16.06c1.13,0,1.77-.44,1.77-1.57v-5.07h.8v5.05c0,1.65-.91,2.3-2.56,2.3s-2.5-.64-2.5-2.3v-5.05h.81v5.07c0,1.13.63,1.57,1.7,1.57Z"/><path class="cls-5" d="m59.81,9.42h1.46l2.05,6.13,2.05-6.13h1.46v7.25h-.81v-6.39h-.15l-2.1,6.13h-.9l-2.1-6.13h-.15v6.39h-.81v-7.25Z"/><path class="cls-5" d="m13.08,25.86c-.51.1-1.31.22-2,.22-2.17,0-2.65-1.32-2.65-3.71s.47-3.75,2.65-3.75c.74,0,1.54.14,2,.23l-.03.68c-.47-.08-1.32-.19-1.89-.19-1.61,0-1.9.96-1.9,3.03s.26,2.98,1.92,2.98c.59,0,1.36-.09,1.86-.19l.03.69Z"/><path class="cls-5" d="m13.74,22.38c0-2.39.62-3.76,2.86-3.76s2.87,1.35,2.87,3.76-.62,3.7-2.87,3.7-2.86-1.27-2.86-3.7Zm4.89,0c0-1.96-.38-3.05-2.03-3.05s-2.03,1.08-2.03,3.05.36,2.98,2.03,2.98,2.03-.94,2.03-2.98Z"/><path class="cls-5" d="m20.41,22.38c0-2.39.62-3.76,2.86-3.76s2.87,1.35,2.87,3.76-.62,3.7-2.87,3.7-2.86-1.27-2.86-3.7Zm4.89,0c0-1.96-.38-3.05-2.03-3.05s-2.03,1.08-2.03,3.05.36,2.98,2.03,2.98,2.03-.94,2.03-2.98Z"/><path class="cls-5" d="m28.17,23.2v2.77h-.81v-7.25h2.68c1.52,0,2.31.67,2.31,2.2,0,1.07-.42,1.81-1.33,2.11l1.39,2.94h-.89l-1.31-2.77h-2.05Zm1.87-3.76h-1.87v3.05h1.88c1.09,0,1.48-.65,1.48-1.56,0-.99-.47-1.49-1.49-1.49Z"/><path class="cls-5" d="m33.57,25.97v-7.25h2.59c2.1,0,2.68,1.47,2.68,3.52s-.55,3.73-2.68,3.73h-2.59Zm2.59-6.53h-1.78v5.82h1.78c1.51,0,1.85-1.44,1.85-3.02s-.35-2.81-1.85-2.81Z"/><path class="cls-5" d="m40.08,18.73h.81v7.25h-.81v-7.25Z"/><path class="cls-5" d="m42.41,18.73h1.51l2.77,6.53h.22v-6.53h.8v7.25h-1.48l-2.82-6.53h-.2v6.53h-.81v-7.25Z"/><path class="cls-5" d="m50.59,18.73h1.76l1.99,7.25h-.8l-.52-1.86h-3.1l-.52,1.86h-.8l1.99-7.25Zm-.49,4.66h2.74l-1.1-3.97h-.55l-1.1,3.97Z"/><path class="cls-5" d="m53.99,18.73h5.24v.72h-2.21v6.52h-.8v-6.52h-2.23v-.72Z"/><path class="cls-5" d="m59.5,22.38c0-2.39.62-3.76,2.86-3.76s2.87,1.35,2.87,3.76-.62,3.7-2.87,3.7-2.86-1.27-2.86-3.7Zm4.89,0c0-1.96-.38-3.05-2.03-3.05s-2.03,1.08-2.03,3.05.36,2.98,2.03,2.98,2.03-.94,2.03-2.98Z"/><path class="cls-5" d="m67.26,23.2v2.77h-.81v-7.25h2.68c1.52,0,2.31.67,2.31,2.2,0,1.07-.42,1.81-1.33,2.11l1.39,2.94h-.89l-1.31-2.77h-2.05Zm1.87-3.76h-1.87v3.05h1.88c1.09,0,1.48-.65,1.48-1.56,0-.99-.47-1.49-1.49-1.49Z"/></g></svg>