<?xml version="1.0" encoding="UTF-8"?><svg id="Layer_1" xmlns="http://www.w3.org/2000/svg" viewBox="0 0 210.74 79.37"><defs><style>.cls-1{fill:#ffed00;}.cls-2{fill:#22426c;}</style></defs><g><path class="cls-2" d="m11.18,24.41h2l6.35,9.97h.04v-9.97h2.12v14.03h-2.01l-6.34-9.97h-.04v9.97h-2.13v-14.03Z"/><path class="cls-2" d="m24.66,24.41h8.96v2.01h-6.83v4h5.83v1.89h-5.83v4.12h6.83v2.01h-8.96v-14.03Z"/><path class="cls-2" d="m38,26.3h-3.84v-1.89h9.81v1.89h-3.84v12.13h-2.14v-12.13Z"/><path class="cls-2" d="m44.21,24.41h2.24l2.2,9.97h.04l2.72-9.97h1.54l2.71,9.97h.04l2.21-9.97h2.24l-3.5,14.03h-1.78l-2.67-10.11h-.04l-2.68,10.11h-1.77l-3.5-14.03Z"/><path class="cls-2" d="m61.39,31.42c0-1.63.05-2.72.14-3.27.1-.55.26-1,.47-1.34.34-.65.88-1.23,1.63-1.73.74-.51,1.66-.78,2.76-.79,1.12.01,2.05.28,2.79.79.74.51,1.27,1.08,1.6,1.73.24.34.4.79.49,1.34.08.55.12,1.64.12,3.27s-.04,2.69-.12,3.25c-.09.56-.25,1.02-.49,1.36-.33.65-.86,1.22-1.6,1.71-.74.51-1.67.78-2.79.81-1.1-.03-2.02-.29-2.76-.81-.75-.5-1.29-1.06-1.63-1.71-.1-.21-.2-.41-.28-.6-.08-.2-.14-.45-.19-.75-.1-.56-.14-1.65-.14-3.25Zm2.14,0c0,1.38.05,2.31.15,2.8.09.49.27.88.55,1.18.23.29.52.52.89.7.36.21.79.32,1.29.32s.95-.1,1.32-.32c.35-.18.64-.42.85-.7.27-.3.46-.7.57-1.18.1-.49.15-1.42.15-2.8s-.05-2.32-.15-2.82c-.1-.48-.29-.86-.57-1.16-.21-.29-.5-.53-.85-.72-.37-.19-.81-.29-1.32-.3-.5.01-.93.11-1.29.3-.37.19-.66.43-.89.72-.27.3-.46.69-.55,1.16-.1.5-.15,1.44-.15,2.82Z"/><path class="cls-2" d="m73.88,24.41h5.47c1.17,0,2.12.31,2.86.92.89.7,1.36,1.7,1.39,2.99-.03,1.9-.93,3.2-2.71,3.89l3.25,6.22h-2.53l-2.89-5.99h-2.71v5.99h-2.13v-14.03Zm2.13,6.15h3.21c.79-.01,1.39-.24,1.79-.69.39-.42.59-.93.59-1.54-.01-.73-.25-1.26-.7-1.59-.36-.29-.88-.43-1.56-.43h-3.33v4.25Z"/><path class="cls-2" d="m85.9,24.41h2.13v7.23h.04l5.77-7.23h2.52l-4.49,5.53,4.97,8.5h-2.52l-3.82-6.86-2.46,2.59v4.27h-2.13v-14.03Z"/></g><g><path class="cls-2" d="m11.24,46.93h2l4.02,9.14,3.94-9.14h2.01v14.03h-2.13v-8.75h-.05l-2.93,6.74h-1.77l-2.93-6.74h-.04v8.75h-2.12v-14.03Z"/><path class="cls-2" d="m33.36,57.82h-5.32l-1.08,3.14h-2.25l5.1-14.03h1.78l5.1,14.03h-2.24l-1.09-3.14Zm-.6-1.89l-2.03-6.13h-.04l-2.03,6.13h4.1Z"/><path class="cls-2" d="m38.19,46.93h2l6.35,9.97h.04v-9.97h2.13v14.03h-2.01l-6.34-9.97h-.04v9.97h-2.12v-14.03Z"/><path class="cls-2" d="m58.85,57.82h-5.32l-1.08,3.14h-2.25l5.1-14.03h1.78l5.1,14.03h-2.24l-1.09-3.14Zm-.6-1.89l-2.03-6.13h-.04l-2.03,6.13h4.1Z"/></g><g><path class="cls-2" d="m67.89,53.23h4.99v2.86c-.03,1.41-.51,2.58-1.44,3.53-.94.94-2.13,1.43-3.56,1.45-1.1-.03-2.02-.29-2.76-.81-.75-.5-1.29-1.06-1.63-1.71-.1-.21-.2-.41-.28-.6-.08-.2-.14-.45-.19-.75-.1-.56-.14-1.65-.14-3.25s.05-2.72.14-3.27c.1-.55.26-1,.47-1.34.34-.65.88-1.23,1.63-1.73.74-.51,1.66-.78,2.76-.79,1.35.01,2.46.42,3.31,1.2.85.8,1.39,1.78,1.62,2.95h-2.25c-.17-.56-.49-1.05-.94-1.44-.48-.38-1.05-.57-1.73-.59-.5.01-.93.11-1.29.3-.37.19-.66.43-.89.72-.27.3-.46.69-.55,1.16-.1.5-.15,1.44-.15,2.82s.05,2.31.15,2.8c.09.49.27.88.55,1.18.23.29.52.52.89.7.36.21.79.32,1.29.32.83,0,1.51-.28,2.05-.85.54-.54.81-1.25.83-2.13v-.73h-2.86v-2.01Z"/><path class="cls-2" d="m75.36,46.93h8.96v2.01h-6.83v4h5.83v1.89h-5.83v4.12h6.83v2.01h-8.96v-14.03Z"/><path class="cls-2" d="m86.32,46.93h5.47c1.17,0,2.12.31,2.86.92.89.7,1.36,1.7,1.39,2.99-.02,1.9-.93,3.2-2.71,3.89l3.25,6.22h-2.53l-2.9-5.99h-2.71v5.99h-2.12v-14.03Zm2.12,6.15h3.21c.8-.01,1.39-.24,1.79-.69.39-.42.59-.93.59-1.54-.01-.73-.25-1.26-.7-1.59-.36-.29-.88-.43-1.56-.43h-3.33v4.25Z"/></g><rect class="cls-2" x="110.74" y="11.13" width="88.81" height="59.21"/><polygon class="cls-1" points="153.26 24.03 155.13 22.66 157.01 24.03 156.29 21.82 158.2 20.45 155.85 20.45 155.13 18.22 154.42 20.46 152.07 20.45 153.97 21.82 153.26 24.03"/><polygon class="cls-1" points="143.56 26.64 145.43 25.27 147.31 26.64 146.6 24.43 148.5 23.06 146.15 23.06 145.43 20.82 144.72 23.06 142.37 23.06 144.27 24.43 143.56 26.64"/><polygon class="cls-1" points="138.34 27.93 137.62 30.17 135.27 30.17 137.18 31.54 136.46 33.75 138.34 32.38 140.21 33.75 139.5 31.54 141.4 30.17 139.06 30.17 138.34 27.93"/><polygon class="cls-1" points="135.73 42.07 137.61 43.44 136.9 41.23 138.8 39.86 136.45 39.86 135.73 37.62 135.02 39.86 132.67 39.86 134.57 41.23 133.86 43.44 135.73 42.07"/><polygon class="cls-1" points="139.06 49.57 138.34 47.33 137.62 49.57 135.28 49.57 137.18 50.94 136.46 53.15 138.34 51.78 140.21 53.15 139.5 50.94 141.4 49.57 139.06 49.57"/><polygon class="cls-1" points="146.17 56.68 145.45 54.45 144.73 56.68 142.39 56.68 144.29 58.05 143.57 60.26 145.45 58.89 147.32 60.26 146.61 58.05 148.51 56.68 146.17 56.68"/><polygon class="cls-1" points="155.85 59.26 155.13 57.02 154.42 59.26 152.07 59.26 153.97 60.63 153.26 62.84 155.13 61.47 157.01 62.84 156.29 60.63 158.2 59.26 155.85 59.26"/><polygon class="cls-1" points="165.54 56.68 164.82 54.45 164.1 56.68 161.76 56.68 163.66 58.05 162.95 60.26 164.82 58.89 166.7 60.26 165.98 58.05 167.88 56.68 165.54 56.68"/><polygon class="cls-1" points="172.65 49.57 171.93 47.33 171.21 49.57 168.87 49.57 170.77 50.94 170.06 53.15 171.93 51.78 173.8 53.15 173.09 50.94 174.99 49.57 172.65 49.57"/><polygon class="cls-1" points="177.57 39.83 175.22 39.83 174.5 37.59 173.79 39.83 171.44 39.83 173.34 41.2 172.63 43.41 174.5 42.04 176.38 43.41 175.67 41.2 177.57 39.83"/><polygon class="cls-1" points="170.06 33.72 171.93 32.35 173.81 33.72 173.09 31.51 174.99 30.14 172.65 30.14 171.93 27.9 171.21 30.15 168.87 30.14 170.77 31.51 170.06 33.72"/><polygon class="cls-1" points="164.85 20.82 164.13 23.06 161.78 23.06 163.69 24.43 162.97 26.64 164.85 25.27 166.72 26.64 166.01 24.43 167.91 23.06 165.56 23.06 164.85 20.82"/></svg>