<?xml version="1.0" encoding="UTF-8"?><svg id="Layer_1" xmlns="http://www.w3.org/2000/svg" xmlns:xlink="http://www.w3.org/1999/xlink" viewBox="0 0 147.4 79.37"><defs><style>.cls-1{mask:url(#mask);}.cls-2{fill:#008cc6;}.cls-3{fill:#009cd8;}.cls-4{fill:#8bb63b;}.cls-5{fill:#24306b;}.cls-6{fill:url(#Dégradé_sans_nom_13);}.cls-7{fill:url(#Dégradé_sans_nom_3);}.cls-8{fill:url(#Dégradé_sans_nom_13-2);}.cls-9{fill:url(#Nouvelle_nuance_de_dégradé_2-3);}.cls-10{fill:url(#Nouvelle_nuance_de_dégradé_2-4);}.cls-11{fill:url(#Nouvelle_nuance_de_dégradé_2-2);}.cls-12{fill:url(#Nouvelle_nuance_de_dégradé_2);}</style><linearGradient id="Dégradé_sans_nom_3" x1="122.44" y1="22.86" x2="134.63" y2="22.86" gradientUnits="userSpaceOnUse"><stop offset="0" stop-color="#009cd8"/><stop offset=".38" stop-color="#1166a2"/><stop offset=".71" stop-color="#1e3f7a"/><stop offset=".88" stop-color="#24306b"/></linearGradient><filter id="luminosity-noclip" x="55.15" y="-8395.07" width="19.05" height="32766" color-interpolation-filters="sRGB" filterUnits="userSpaceOnUse"><feFlood flood-color="#fff" result="bg"/><feBlend in="SourceGraphic" in2="bg"/></filter><mask id="mask" x="55.15" y="-8395.07" width="19.05" height="32766" maskUnits="userSpaceOnUse"/><linearGradient id="Dégradé_sans_nom_13" x1="68.38" y1="47.79" x2="68.38" y2="47.79" gradientUnits="userSpaceOnUse"><stop offset="0" stop-color="#009cd8"/><stop offset=".46" stop-color="#009cd8"/><stop offset=".57" stop-color="#0e5f97"/><stop offset=".66" stop-color="#193267"/><stop offset=".7" stop-color="#1e2155"/><stop offset="1" stop-color="#1e2155"/></linearGradient><linearGradient id="Dégradé_sans_nom_13-2" x1="-98.58" y1="503.94" x2="-98.23" y2="503.94" gradientTransform="translate(31076.07 158866.23) scale(315.17 -315.17)" xlink:href="#Dégradé_sans_nom_13"/><linearGradient id="Nouvelle_nuance_de_dégradé_2" x1="74.19" y1="46.88" x2="74.19" y2="46.88" gradientUnits="userSpaceOnUse"><stop offset="0" stop-color="#75ad3f"/><stop offset=".45" stop-color="#75ad3f"/><stop offset=".49" stop-color="#68a94d"/><stop offset=".56" stop-color="#48a072"/><stop offset=".66" stop-color="#1491ae"/><stop offset=".7" stop-color="#008cc6"/><stop offset="1" stop-color="#008cc6"/></linearGradient><linearGradient id="Nouvelle_nuance_de_dégradé_2-2" x1="-98.6" y1="503.93" x2="-98.25" y2="503.93" gradientTransform="translate(32348.79 165339.95) scale(328 -328)" xlink:href="#Nouvelle_nuance_de_dégradé_2"/><linearGradient id="Nouvelle_nuance_de_dégradé_2-3" x1="-98.6" y1="503.94" x2="-98.25" y2="503.94" gradientTransform="translate(32348.79 165339.95) scale(328 -328)" xlink:href="#Nouvelle_nuance_de_dégradé_2"/><linearGradient id="Nouvelle_nuance_de_dégradé_2-4" x1="-98.39" y1="503.94" x2="-98.26" y2="503.94" gradientTransform="translate(32348.79 165339.95) scale(328 -328)" xlink:href="#Nouvelle_nuance_de_dégradé_2"/></defs><path class="cls-5" d="m10.05,63.9h-1.15v5.93c0,.79-.26.9-.96.9v1.02c1.48,0,2.11-.28,2.11-1.84v-6.02Zm4.65,6.23c-1.39,0-1.71-.85-1.71-2.63s.33-2.7,1.71-2.7,1.7.94,1.7,2.7-.31,2.63-1.7,2.63m0,1.01c2.23,0,2.89-1.22,2.89-3.64s-.67-3.71-2.89-3.71-2.91,1.33-2.91,3.71.67,3.64,2.91,3.64m4.69-.11h1.16v-7.12h-1.16v7.12Zm3.19,0h1.16v-6.11h.15l2.22,6.11h1.98v-7.12h-1.16v6.1h-.16l-2.17-6.1h-2.02v7.12Zm6.98-6.09h2.03v6.09h1.17v-6.09h2.01v-1.03h-5.21v1.03Zm10.5,3.81v-4.84h-1.17v4.82c0,1.72.92,2.41,2.61,2.41s2.63-.7,2.63-2.41v-4.82h-1.17v4.84c0,.96-.51,1.38-1.47,1.38s-1.45-.42-1.45-1.38m6.1,2.28h1.16v-6.11h.15l2.22,6.11h1.98v-7.12h-1.16v6.1h-.16l-2.17-6.1h-2.02v7.12Zm10.02,0c2.35,0,2.85-1.42,2.85-3.68s-.55-3.44-2.85-3.44h-2.47v7.12h2.47Zm1.66-3.68c0,1.56-.22,2.66-1.66,2.66h-1.31v-5.09h1.31c1.44,0,1.66.87,1.66,2.43m2.99,3.68h4.5v-1.02h-3.34v-2.08h2.72v-1h-2.72v-2.02h3.34v-1.01h-4.5v7.12Zm8.96-2.53l1.03,2.53h1.27l-1.18-2.79c.76-.35,1.17-1.05,1.17-2.06,0-1.58-.84-2.27-2.42-2.27h-2.71v7.12h1.16v-2.53h1.68Zm1.1-2.31c0,.74-.33,1.31-1.21,1.31h-1.57v-2.59h1.55c.83,0,1.23.47,1.23,1.28m2.4-1.25h2.03v6.09h1.17v-6.09h2.01v-1.03h-5.21v1.03Zm5.63,6.09h1.16l.39-1.53h2.74l.39,1.53h1.17l-1.77-7.12h-2.3l-1.76,7.12Zm2.66-6.15h.52l.87,3.61h-2.28l.89-3.61Zm8.42,6.15h1.34l-1.83-3.54,1.76-3.57h-1.32l-1.46,3.13-1.06.08v-3.21h-1.16v7.12h1.16v-2.9l1.06-.07,1.51,2.97Zm2.85,0h1.16v-7.12h-1.16v7.12Zm3.19,0h1.16v-6.11h.15l2.22,6.11h1.98v-7.12h-1.16v6.1h-.16l-2.17-6.1h-2.02v7.12Zm10.51-2.72h.89v1.74c-.13.03-.67.09-1.13.09-1.46,0-1.76-.73-1.76-2.66s.36-2.65,1.79-2.65c.95,0,2.21.17,2.21.17l.04-.91s-1.33-.28-2.43-.28c-2.12,0-2.81,1.18-2.81,3.68,0,2.36.58,3.67,2.85,3.67.86,0,2.29-.22,2.38-.24v-3.62h-2.03v1.02Z"/><polygon class="cls-7" points="127.37 34.62 122.44 20.18 134.63 11.09 127.37 34.62"/><g><polygon class="cls-4" points="131.85 25.63 139.59 25.52 133.27 21.05 131.85 25.63"/><polygon class="cls-4" points="125.71 15.7 119.41 11.25 121.9 18.55 125.71 15.7"/></g><polygon class="cls-5" points="114.83 25.84 124.34 25.73 122.44 20.18 114.83 25.84"/><path class="cls-3" d="m19.03,41.85c-4.84-.84-5.88-1.29-5.88-2.92,0-2.03,1.33-2.72,4.3-2.72s8.8.79,8.8.79l.1-4.5s-5.69-1.09-9.3-1.09c-4.89,0-9.25,2.08-9.25,7.66,0,5.24,2.77,6.43,8.21,7.32,4.89.79,5.74,1.33,5.74,3.07,0,.21-.01.41-.04.59.65,0,1.3,0,1.95,0,1.14,0,2.28,0,3.41,0,.01-.24.02-.48.02-.73,0-4.94-2.13-6.43-8.06-7.47Z"/><path class="cls-4" d="m23.66,50.06c-.65,0-1.3,0-1.95,0-.25,1.72-1.69,2.33-4.91,2.33-2.52,0-8.45-.79-8.45-.79l-.2,4.5s5.74,1.09,9.15,1.09c5.86,0,9.47-1.9,9.77-7.13-1.13,0-2.27,0-3.41,0Z"/><path class="cls-3" d="m51.69,42.69c0-7.71-3.46-11.32-10.38-11.32s-10.73,4.1-10.73,13.15c0,2.11.17,3.94.53,5.51,1.85-.02,3.7-.04,5.53-.07-.41-.9-.61-2.03-.62-3.41h15.33l.35-3.86Zm-15.72-.3c.05-4.75,1.68-6.58,5.34-6.58s5.09,1.63,5.09,6.58h-10.43Z"/><path class="cls-4" d="m50.75,52.04s-5.19.45-9.1.45c-2.68,0-4.24-.84-5.01-2.52-1.83.03-3.68.05-5.53.07,1.13,4.88,4.14,7.15,9.75,7.15,4.35,0,9.99-1.14,9.99-1.14l-.1-4Z"/><g class="cls-1"><g><polygon class="cls-6" points="68.38 47.79 68.38 47.79 68.38 47.79 68.38 47.79"/><path class="cls-8" d="m66.37,41.85c-4.84-.84-5.88-1.29-5.88-2.92,0-2.03,1.34-2.72,4.3-2.72s8.8.79,8.8.79l.1-4.5s-5.69-1.09-9.3-1.09c-4.89,0-9.25,2.08-9.25,7.66,0,5.24,2.77,6.43,8.21,7.32,2.81.45,4.28.83,5.03,1.39h0c1.95-.27,3.88-.58,5.81-.91-.7-3.04-3.01-4.18-7.82-5.02Z"/></g></g><g><polygon class="cls-12" points="74.19 46.88 74.19 46.88 74.19 46.88 74.19 46.88"/><path class="cls-11" d="m74.19,46.88c-1.93.34-3.86.64-5.81.91.55.42.71.94.71,1.68,0,2.18-1.38,2.92-4.94,2.92-2.52,0-8.45-.79-8.45-.79l-.2,4.5s5.74,1.09,9.15,1.09c6.13,0,9.79-2.08,9.79-7.86,0-.93-.08-1.74-.24-2.44h0Z"/></g><path class="cls-5" d="m111.16,31.37c-5.66,0-8.18,2.22-8.48,7.15,4.45-1.93,8.85-4.18,13.21-6.8-1.51-.2-3.17-.35-4.73-.35Z"/><path class="cls-2" d="m115.9,31.72c-4.35,2.62-8.76,4.87-13.21,6.8-.02.33-.03.66-.03,1.01v17.55c2.63-.29,5.36-1.35,5.36-4.98l-.02-10.79v-1.78c0-2.72,1.19-3.56,3.61-3.56,3.31,0,9.3.49,9.3.49l.06-1.15v-2.69c-.54-.12-2.6-.58-5.07-.9Z"/><path class="cls-5" d="m86.21,41.85c-3.98.34-6.59,1.43-7.64,4.18,6.56-1.36,13.01-3.17,19.36-5.58v-.92c0-5.64-2.47-8.16-8.5-8.16-4.55,0-9.94,1.29-9.94,1.29l.2,3.81s5.98-.49,9.3-.49c2.42,0,3.61.84,3.61,3.56v1.78l-6.38.54Z"/><g><path class="cls-9" d="m78.57,46.04c-.34.9-.52,1.99-.52,3.28,0,5.14,2.47,7.86,7.37,7.86,4,0,7.96-1.83,7.96-1.83,1.38,1.08,2.7,1.57,4.55,1.75v-16.64c-6.35,2.41-12.8,4.23-19.36,5.58Zm14.02,5.65s-3.31,1.09-6.13,1.09c-2.08,0-3.02-1.38-3.02-3.61s1.14-3.31,3.41-3.51l5.74-.55v6.58Z"/><polygon class="cls-10" points="97.93 40.45 97.94 57.1 97.94 40.45 97.93 40.45"/></g><g><path class="cls-3" d="m8.07,18.6h4.35v.72h-3.54v2.84h3v.72h-3v3.01h-.81v-7.28Z"/><path class="cls-3" d="m13,22.27c0-2.4.62-3.78,2.87-3.78s2.88,1.36,2.88,3.78-.62,3.71-2.88,3.71-2.87-1.27-2.87-3.71Zm4.91,0c0-1.97-.38-3.06-2.04-3.06s-2.04,1.08-2.04,3.06.36,3,2.04,3,2.04-.95,2.04-3Z"/><path class="cls-3" d="m22.38,25.27c1.14,0,1.78-.44,1.78-1.58v-5.09h.8v5.07c0,1.66-.91,2.31-2.58,2.31s-2.51-.64-2.51-2.31v-5.07h.81v5.09c0,1.14.63,1.58,1.7,1.58Z"/><path class="cls-3" d="m26.37,18.6h1.51l2.79,6.56h.22v-6.56h.8v7.28h-1.48l-2.83-6.56h-.2v6.56h-.81v-7.28Z"/><path class="cls-3" d="m33.17,25.88v-7.28h2.6c2.11,0,2.69,1.47,2.69,3.53s-.55,3.74-2.69,3.74h-2.6Zm2.6-6.56h-1.79v5.85h1.79c1.51,0,1.86-1.45,1.86-3.03s-.35-2.82-1.86-2.82Z"/><path class="cls-3" d="m39.64,18.6h.81v7.28h-.81v-7.28Z"/><path class="cls-3" d="m41.91,18.6h1.51l2.79,6.56h.22v-6.56h.8v7.28h-1.48l-2.83-6.56h-.2v6.56h-.81v-7.28Z"/><path class="cls-3" d="m51.58,22.16h2.01v3.58c-.22.04-1.57.25-2.37.25-2.23,0-2.82-1.37-2.82-3.72s.61-3.76,2.8-3.76c1.1,0,2.39.27,2.39.27l-.03.67s-1.3-.22-2.26-.22c-1.68,0-2.05.98-2.05,3.04s.36,3.01,2.04,3.01c.53,0,1.23-.09,1.5-.15v-2.24h-1.21v-.73Z"/><path class="cls-3" d="m56.86,18.6h1.46l2.06,6.15,2.06-6.15h1.46v7.28h-.81v-6.41h-.15l-2.11,6.15h-.9l-2.11-6.15h-.15v6.41h-.81v-7.28Z"/><path class="cls-3" d="m65.38,18.6h4.43v.72h-3.62v2.51h2.99v.7h-2.99v2.63h3.62v.72h-4.43v-7.28Z"/><path class="cls-3" d="m70.88,18.6h1.46l2.06,6.15,2.06-6.15h1.46v7.28h-.81v-6.41h-.15l-2.11,6.15h-.9l-2.11-6.15h-.15v6.41h-.81v-7.28Z"/><path class="cls-3" d="m82.04,18.6c1.42,0,2.17.56,2.17,1.85,0,.95-.35,1.4-.94,1.67.64.22,1.16.66,1.16,1.71,0,1.54-.88,2.04-2.25,2.04h-2.78v-7.28h2.64Zm-1.83.72v2.51h1.87c.91,0,1.29-.43,1.29-1.3s-.44-1.21-1.37-1.21h-1.8Zm0,3.22v2.63h1.94c.88,0,1.46-.28,1.46-1.36,0-1.13-.96-1.27-1.51-1.27h-1.88Z"/><path class="cls-3" d="m85.57,18.6h4.43v.72h-3.62v2.51h2.99v.7h-2.99v2.63h3.62v.72h-4.43v-7.28Z"/><path class="cls-3" d="m91.88,23.09v2.79h-.81v-7.28h2.69c1.52,0,2.32.67,2.32,2.21,0,1.07-.42,1.82-1.34,2.11l1.4,2.96h-.89l-1.31-2.79h-2.06Zm1.88-3.78h-1.88v3.06h1.89c1.09,0,1.48-.65,1.48-1.57,0-1-.47-1.49-1.49-1.49Z"/></g></svg>