<?xml version="1.0" encoding="UTF-8"?>
<svg width="139px" height="44px" viewBox="0 0 139 44" version="1.1" xmlns="http://www.w3.org/2000/svg" xmlns:xlink="http://www.w3.org/1999/xlink">
    <title>nm logo color</title>
    <g id="Symbols" stroke="none" stroke-width="1" fill="none" fill-rule="evenodd">
        <g id="Components/Footer" transform="translate(-1255.000000, -62.000000)">
            <g id="nm-logo-color" transform="translate(1254.999600, 62.000300)">
                <polygon id="Fill-1"  fill="#2C436A" points="6.214 9.8316 6.214 17.2156 6.186 17.2156 1.483 9.8316 0 9.8316 0 20.2226 1.575 20.2226 1.575 12.8386 1.603 12.8386 6.3 20.2226 7.79 20.2226 7.79 9.8316"></polygon>
                <polygon id="Fill-2"  fill="#2C436A" points="9.9845 9.8318 16.6195 9.8318 16.6195 11.3208 11.5605 11.3208 11.5605 14.2858 15.8775 14.2858 15.8775 15.6838 11.5605 15.6838 11.5605 18.7328 16.6195 18.7328 16.6195 20.2228 9.9845 20.2228"></polygon>
                <polygon id="Fill-3"  fill="#2C436A" points="19.8629 11.2351 17.0199 11.2351 17.0199 9.8321 24.2879 9.8321 24.2879 11.2351 21.4449 11.2351 21.4449 20.2221 19.8629 20.2221"></polygon>
                <polygon id="Fill-4"  fill="#2C436A" points="24.4669 9.8318 26.1279 9.8318 27.7589 17.2158 27.7879 17.2158 29.8039 9.8318 30.9449 9.8318 32.9549 17.2158 32.9829 17.2158 34.6229 9.8318 36.2819 9.8318 33.6889 20.2228 32.3699 20.2228 30.3889 12.7318 30.3619 12.7318 28.3729 20.2228 27.0599 20.2228"></polygon>
                <path    id="Fill-5"  fill="#2C436A" d="M38.7686,15.0271 C38.7686,16.0481 38.8066,16.7391 38.8826,17.1011 C38.9506,17.4621 39.0856,17.7551 39.2896,17.9771 C39.4556,18.1911 39.6746,18.3641 39.9456,18.4981 C40.2116,18.6551 40.5286,18.7331 40.9006,18.7331 C41.2766,18.7331 41.6006,18.6551 41.8766,18.4981 C42.1376,18.3641 42.3476,18.1911 42.5046,17.9771 C42.7076,17.7551 42.8486,17.4621 42.9246,17.1011 C42.9956,16.7391 43.0316,16.0481 43.0316,15.0271 C43.0316,14.0061 42.9956,13.3091 42.9246,12.9391 C42.8486,12.5871 42.7076,12.2991 42.5046,12.0761 C42.3476,11.8631 42.1376,11.6841 41.8766,11.5431 C41.6006,11.4051 41.2766,11.3311 40.9006,11.3211 C40.5286,11.3311 40.2116,11.4051 39.9456,11.5431 C39.6746,11.6841 39.4556,11.8631 39.2896,12.0761 C39.0856,12.2991 38.9506,12.5871 38.8826,12.9391 C38.8066,13.3091 38.7686,14.0061 38.7686,15.0271 M37.1866,15.0271 C37.1866,13.8201 37.2236,13.0111 37.2936,12.6031 C37.3706,12.1951 37.4856,11.8651 37.6436,11.6131 C37.8956,11.1341 38.2996,10.7061 38.8546,10.3311 C39.4016,9.9511 40.0826,9.7561 40.9006,9.7461 C41.7276,9.7561 42.4146,9.9511 42.9676,10.3311 C43.5126,10.7061 43.9076,11.1341 44.1506,11.6131 C44.3266,11.8651 44.4466,12.1951 44.5126,12.6031 C44.5756,13.0111 44.6056,13.8201 44.6056,15.0271 C44.6056,16.2151 44.5756,17.0171 44.5126,17.4351 C44.4466,17.8531 44.3266,18.1891 44.1506,18.4401 C43.9076,18.9221 43.5126,19.3421 42.9676,19.7101 C42.4146,20.0901 41.7276,20.2891 40.9006,20.3081 C40.0826,20.2891 39.4016,20.0901 38.8546,19.7101 C38.2996,19.3421 37.8956,18.9221 37.6436,18.4401 C37.5666,18.2831 37.4986,18.1341 37.4356,17.9921 C37.3796,17.8451 37.3316,17.6591 37.2936,17.4351 C37.2236,17.0171 37.1866,16.2151 37.1866,15.0271"></path>
                <path    id="Fill-7"  fill="#2C436A" d="M48.0206,14.3855 L50.4006,14.3855 C50.9896,14.3755 51.4306,14.2055 51.7266,13.8725 C52.0156,13.5645 52.1616,13.1835 52.1616,12.7325 C52.1516,12.1905 51.9786,11.7985 51.6406,11.5555 C51.3746,11.3425 50.9896,11.2355 50.4856,11.2355 L48.0206,11.2355 L48.0206,14.3855 Z M46.4456,9.8315 L50.4996,9.8315 C51.3646,9.8315 52.0706,10.0595 52.6176,10.5155 C53.2766,11.0325 53.6216,11.7725 53.6506,12.7325 C53.6306,14.1425 52.9616,15.1035 51.6406,15.6125 L54.0486,20.2225 L52.1746,20.2225 L50.0306,15.7815 L48.0206,15.7815 L48.0206,20.2225 L46.4456,20.2225 L46.4456,9.8315 Z"></path>
                <polygon id="Fill-9"  fill="#2C436A" points="55.3468 9.8318 56.9218 9.8318 56.9218 15.1848 56.9508 15.1848 61.2258 9.8318 63.0928 9.8318 59.7648 13.9298 63.4428 20.2228 61.5758 20.2228 58.7448 15.1418 56.9218 17.0588 56.9218 20.2228 55.3468 20.2228"></polygon>
                <polygon id="Fill-11" fill="#2C436A" points="0.0367 26.5124 1.5197 26.5124 4.4977 33.2834 7.4187 26.5124 8.9107 26.5124 8.9107 36.9034 7.3347 36.9034 7.3347 30.4244 7.2987 30.4244 5.1247 35.4134 3.8137 35.4134 1.6407 30.4244 1.6117 30.4244 1.6117 36.9034 0.0367 36.9034"></polygon>
                <path    id="Fill-13" fill="#2C436A" d="M15.9718,33.1833 L14.4678,28.6423 L14.4398,28.6423 L12.9348,33.1833 L15.9718,33.1833 Z M16.4198,34.5803 L12.4788,34.5803 L11.6808,36.9033 L10.0138,36.9033 L13.7918,26.5123 L15.1088,26.5123 L18.8868,36.9033 L17.2268,36.9033 L16.4198,34.5803 Z"></path>
                <polygon id="Fill-15" fill="#2C436A" points="19.9986 26.5124 21.4816 26.5124 26.1846 33.8964 26.2126 33.8964 26.2126 26.5124 27.7876 26.5124 27.7876 36.9034 26.2986 36.9034 21.6026 29.5194 21.5736 29.5194 21.5736 36.9034 19.9986 36.9034"></polygon>
                <path    id="Fill-17" fill="#2C436A" d="M34.8575,33.1833 L33.3535,28.6423 L33.3255,28.6423 L31.8205,33.1833 L34.8575,33.1833 Z M35.3055,34.5803 L31.3645,34.5803 L30.5665,36.9033 L28.8995,36.9033 L32.6775,26.5123 L33.9945,26.5123 L37.7725,36.9033 L36.1125,36.9033 L35.3055,34.5803 Z"></path>
                <path    id="Fill-19" fill="#2C436A" d="M41.9903,31.1804 L45.6813,31.1804 L45.6813,33.2954 C45.6633,34.3374 45.3063,35.2084 44.6143,35.9124 C43.9143,36.6104 43.0353,36.9694 41.9773,36.9894 C41.1583,36.9694 40.4773,36.7704 39.9303,36.3904 C39.3753,36.0234 38.9713,35.6024 38.7193,35.1204 C38.6433,34.9634 38.5753,34.8154 38.5123,34.6724 C38.4563,34.5264 38.4083,34.3394 38.3703,34.1164 C38.2993,33.6984 38.2623,32.8964 38.2623,31.7074 C38.2623,30.5004 38.2993,29.6924 38.3703,29.2844 C38.4463,28.8754 38.5623,28.5454 38.7193,28.2934 C38.9713,27.8144 39.3753,27.3864 39.9303,27.0114 C40.4773,26.6304 41.1583,26.4364 41.9773,26.4264 C42.9793,26.4364 43.7953,26.7334 44.4283,27.3174 C45.0603,27.9074 45.4583,28.6364 45.6253,29.5054 L43.9573,29.5054 C43.8283,29.0874 43.5973,28.7304 43.2603,28.4364 C42.9073,28.1574 42.4793,28.0114 41.9773,28.0014 C41.6053,28.0114 41.2873,28.0854 41.0213,28.2234 C40.7503,28.3654 40.5323,28.5434 40.3653,28.7564 C40.1623,28.9804 40.0263,29.2674 39.9583,29.6194 C39.8833,29.9904 39.8443,30.6864 39.8443,31.7074 C39.8443,32.7294 39.8833,33.4194 39.9583,33.7824 C40.0263,34.1424 40.1623,34.4354 40.3653,34.6584 C40.5323,34.8714 40.7503,35.0444 41.0213,35.1784 C41.2873,35.3354 41.6053,35.4134 41.9773,35.4134 C42.5893,35.4134 43.0943,35.2034 43.4943,34.7864 C43.8933,34.3874 44.0973,33.8634 44.1083,33.2114 L44.1083,32.6694 L41.9903,32.6694 L41.9903,31.1804 Z"></path>
                <polygon id="Fill-21" fill="#2C436A" points="47.5216 26.5124 54.1566 26.5124 54.1566 28.0014 49.0966 28.0014 49.0966 30.9664 53.4146 30.9664 53.4146 32.3644 49.0966 32.3644 49.0966 35.4134 54.1566 35.4134 54.1566 36.9034 47.5216 36.9034"></polygon>
                <path    id="Fill-23" fill="#2C436A" d="M57.2145,31.0661 L59.5945,31.0661 C60.1835,31.0561 60.6255,30.8851 60.9205,30.5531 C61.2095,30.2451 61.3555,29.8641 61.3555,29.4131 C61.3455,28.8711 61.1725,28.4791 60.8345,28.2361 C60.5685,28.0231 60.1835,27.9161 59.6795,27.9161 L57.2145,27.9161 L57.2145,31.0661 Z M55.6395,26.5121 L59.6945,26.5121 C60.5585,26.5121 61.2645,26.7401 61.8125,27.1961 C62.4715,27.7131 62.8155,28.4531 62.8455,29.4131 C62.8245,30.8231 62.1555,31.7841 60.8345,32.2931 L63.2425,36.9031 L61.3685,36.9031 L59.2245,32.4621 L57.2145,32.4621 L57.2145,36.9031 L55.6395,36.9031 L55.6395,26.5121 Z"></path>
                <path    id="Fill-25" fill="#003399" stroke="#FFFFFF" d="M138.5004,0.5 L138.5004,43.5 L73.5004,43.5 L73.5004,0.5 L138.5004,0.5 Z"></path>
                <polygon id="Fill-27" fill="#FFCC00" points="105.2418 9.5554 106.6308 8.5424 108.0178 9.5554 107.4898 7.9174 108.8998 6.9044 107.1618 6.9044 106.6308 5.2454 106.0978 6.9064 104.3608 6.9044 105.7698 7.9174"></polygon>
                <polygon id="Fill-28" fill="#FFCC00" points="98.0582 11.4851 99.4472 10.4721 100.8332 11.4851 100.3062 9.8471 101.7152 8.8351 99.9772 8.8351 99.4462 7.1741 98.9132 8.8361 97.1762 8.8351 98.5852 9.8471"></polygon>
                <polygon id="Fill-29" fill="#FFCC00" points="94.19 12.4421 93.659 14.1041 91.921 14.1021 93.331 15.1151 92.802 16.7541 94.19 15.7411 95.579 16.7541 95.05 15.1151 96.46 14.1021 94.722 14.1021"></polygon>
                <polygon id="Fill-30" fill="#FFCC00" points="92.2623 22.9148 93.6493 23.9288 93.1213 22.2898 94.5313 21.2768 92.7933 21.2768 92.2623 19.6168 91.7303 21.2808 89.9913 21.2768 91.4023 22.2898 90.8733 23.9288"></polygon>
                <polygon id="Fill-31" fill="#FFCC00" points="94.7223 28.4734 94.1903 26.8134 93.6593 28.4754 91.9213 28.4734 93.3303 29.4864 92.8023 31.1244 94.1903 30.1094 95.5783 31.1244 95.0503 29.4864 96.4593 28.4734"></polygon>
                <polygon id="Fill-32" fill="#FFCC00" points="99.9889 33.739 99.4569 32.081 98.9259 33.741 97.1879 33.739 98.5959 34.753 98.0689 36.39 99.4579 35.378 100.8439 36.39 100.3169 34.753 101.7259 33.739"></polygon>
                <polygon id="Fill-33" fill="#FFCC00" points="107.1627 35.6482 106.6317 33.9882 106.1007 35.6492 104.3617 35.6482 105.7707 36.6612 105.2437 38.2982 106.6327 37.2862 108.0187 38.2982 107.4907 36.6612 108.9007 35.6482"></polygon>
                <polygon id="Fill-34" fill="#FFCC00" points="114.3375 33.739 113.8065 32.081 113.2745 33.741 111.5375 33.739 112.9455 34.753 112.4185 36.39 113.8065 35.378 115.1945 36.39 114.6655 34.753 116.0755 33.739"></polygon>
                <polygon id="Fill-35" fill="#FFCC00" points="119.6051 28.4734 119.0731 26.8134 118.5401 28.4754 116.8041 28.4734 118.2131 29.4864 117.6841 31.1244 119.0731 30.1094 120.4601 31.1244 119.9321 29.4864 121.3411 28.4734"></polygon>
                <polygon id="Fill-36" fill="#FFCC00" points="123.2496 21.2566 121.5126 21.2566 120.9786 19.5976 120.4476 21.2586 118.7106 21.2566 120.1206 22.2706 119.5936 23.9076 120.9786 22.8936 122.3676 23.9076 121.8406 22.2706"></polygon>
                <polygon id="Fill-37" fill="#FFCC00" points="117.6842 16.7322 119.0732 15.7182 120.4602 16.7322 119.9322 15.0932 121.3412 14.0832 119.6052 14.0832 119.0732 12.4222 118.5392 14.0842 116.8042 14.0832 118.2132 15.0932"></polygon>
                <polygon id="Fill-38" fill="#FFCC00" points="113.8268 7.1765 113.2958 8.8375 111.5568 8.8345 112.9658 9.8495 112.4378 11.4875 113.8288 10.4725 115.2148 11.4875 114.6868 9.8495 116.0978 8.8345 114.3568 8.8345"></polygon>
            </g>
        </g>
    </g>
</svg>