<svg class="_main" id="Calque_2" data-name="Calque 2" xmlns="http://www.w3.org/2000/svg" xmlns:xlink="http://www.w3.org/1999/xlink" viewBox="0 0 566.93 260.79"><defs><style>.cls-1{fill:#00306f;}.cls-2{fill:url(#Dégradé_sans_nom_3);}.cls-3{fill:#7ab51d;}.cls-4{fill:#009dd9;}.cls-5{fill:url(#Dégradé_sans_nom_13);}.cls-6{fill:url(#Nouvelle_nuance_de_dégradé_2);}.cls-7{fill:#008dc9;}.cls-8{fill:url(#Nouvelle_nuance_de_dégradé_2-2);}</style><linearGradient id="Dégradé_sans_nom_3" x1="493.1" y1="50.35" x2="545.55" y2="50.35" gradientUnits="userSpaceOnUse"><stop offset="0" stop-color="#009dd9"></stop><stop offset="0.38" stop-color="#0067a5"></stop><stop offset="0.71" stop-color="#003f7e"></stop><stop offset="0.88" stop-color="#00306f"></stop></linearGradient><linearGradient id="Dégradé_sans_nom_13" x1="21.65" y1="434.7" x2="23.16" y2="434.7" gradientTransform="matrix(315.17, 0, 0, -315.17, -6828.55, 137127.64)" gradientUnits="userSpaceOnUse"><stop offset="0" stop-color="#009dd9"></stop><stop offset="0.46" stop-color="#009dd9"></stop><stop offset="0.56" stop-color="#00619c"></stop><stop offset="0.65" stop-color="#00316c"></stop><stop offset="0.7" stop-color="#001f5a"></stop><stop offset="1" stop-color="#001f5a"></stop></linearGradient><linearGradient id="Nouvelle_nuance_de_dégradé_2" x1="21.66" y1="434.58" x2="23.16" y2="434.58" gradientTransform="matrix(328, 0, 0, -328, -7103.55, 142719.34)" gradientUnits="userSpaceOnUse"><stop offset="0" stop-color="#57ab27"></stop><stop offset="0.45" stop-color="#57ab27"></stop><stop offset="0.48" stop-color="#4fa835"></stop><stop offset="0.55" stop-color="#3ba15a"></stop><stop offset="0.63" stop-color="#1b9696"></stop><stop offset="0.7" stop-color="#008dc9"></stop><stop offset="1" stop-color="#008dc9"></stop></linearGradient><linearGradient id="Nouvelle_nuance_de_dégradé_2-2" x1="21.66" y1="434.63" x2="23.16" y2="434.63" xlink:href="#Nouvelle_nuance_de_dégradé_2"></linearGradient></defs><path class="cls-1" d="M10.38,227H5.45v25.53c0,3.4-1.11,3.89-4.12,3.89v4.39c6.36,0,9.1-1.21,9.1-7.92Zm20,26.79c-6,0-7.35-3.67-7.35-11.32s1.43-11.63,7.35-11.63,7.3,4,7.3,11.63c0,7.78-1.34,11.32-7.3,11.32m0,4.33c9.59,0,12.46-5.23,12.46-15.65s-2.87-16-12.46-16-12.5,5.73-12.5,16,2.86,15.65,12.5,15.65m20.19-.49h5V227h-5Zm13.72,0h5v-26.3h.63l9.54,26.3H88V227H83v26.25h-.67L73,227h-8.7ZM94.38,231.4h8.73v26.21h5V231.4h8.65V227H94.38Zm45.16,16.42V227h-5v20.75c0,7.38,3.94,10.37,11.25,10.37s11.33-3,11.33-10.37V227h-5v20.84c0,4.11-2.19,6-6.31,6s-6.24-1.79-6.24-6m26.24,9.79h5v-26.3h.62l9.55,26.3h8.51V227h-5v26.25h-.67L174.47,227h-8.69Zm43.12,0c10.13,0,12.28-6.13,12.28-15.83,0-9.53-2.37-14.8-12.28-14.8H198.28v30.63ZM216,241.78c0,6.71-.94,11.45-7.13,11.45h-5.64V231.31h5.64c6.19,0,7.13,3.76,7.13,10.47m12.86,15.83h19.36v-4.38H233.87v-8.95h11.69V240H233.87v-8.68h14.38V227H228.89Zm38.54-10.91,4.44,10.91h5.47l-5.07-12c3.28-1.52,5-4.52,5-8.85,0-6.8-3.63-9.75-10.39-9.75H255.25v30.63h5V246.7Zm4.75-9.93c0,3.17-1.43,5.64-5.19,5.64h-6.77V231.27h6.68c3.58,0,5.28,2,5.28,5.5m10.33-5.37h8.74v26.21h5V231.4h8.65V227H282.51Zm24.21,26.21h5l1.66-6.57h11.78l1.66,6.57h5L324.19,227h-9.9Zm11.42-26.47h2.24l3.77,15.51h-9.82Zm36.22,26.47h5.78l-7.88-15.25L359.83,227h-5.69l-6.27,13.46-4.58.35V227h-5v30.63h5V245.13l4.58-.31Zm12.25,0h5V227h-5Zm13.73,0h5v-26.3h.63l9.55,26.3H404V227h-5v26.25h-.68L389,227h-8.69Zm45.21-11.72h3.81v7.47a28.77,28.77,0,0,1-4.88.41c-6.27,0-7.57-3.14-7.57-11.45,0-8.64,1.57-11.41,7.7-11.41a88.13,88.13,0,0,1,9.5.72l.18-3.94a60.46,60.46,0,0,0-10.44-1.21c-9.14,0-12.1,5.1-12.1,15.84,0,10.15,2.51,15.78,12.28,15.78a79.41,79.41,0,0,0,10.26-1V241.51h-8.74Z"></path><polygon class="cls-2" points="514.3 100.98 493.1 38.81 545.55 -0.29 514.3 100.98"></polygon><polygon class="cls-3" points="533.6 62.27 566.9 61.81 539.68 42.55 533.6 62.27"></polygon><polygon class="cls-3" points="507.15 19.55 480.06 0.39 490.74 31.8 507.15 19.55"></polygon><polygon class="cls-1" points="460.32 63.17 501.25 62.71 493.1 38.81 460.32 63.17"></polygon><path class="cls-4" d="M48.06,132.09c-20.85-3.61-25.32-5.53-25.32-12.55,0-8.72,5.74-11.7,18.51-11.7s37.87,3.4,37.87,3.4l.43-19.36s-24.47-4.68-40-4.68c-21.07,0-39.79,8.94-39.79,33,0,22.55,11.91,27.66,35.32,31.49,21.06,3.4,24.68,5.74,24.68,13.19a16.87,16.87,0,0,1-.17,2.53H68l14.66,0c.06-1,.09-2.08.09-3.16C82.74,142.94,73.59,136.56,48.06,132.09Z"></path><path class="cls-3" d="M68,167.4h-8.4c-1.06,7.42-7.26,10-21.11,10C27.63,177.42,2.1,174,2.1,174l-.85,19.36s24.68,4.68,39.36,4.68c25.24,0,40.74-8.17,42-30.67Z"></path><path class="cls-4" d="M188.59,135.71c0-33.19-14.89-48.72-44.68-48.72-29.37,0-46.17,17.66-46.17,56.59A106.21,106.21,0,0,0,100,167.29q12-.1,23.8-.31c-1.78-3.86-2.6-8.75-2.68-14.67h66Zm-67.66-1.28c.21-20.42,7.23-28.29,23-28.29,15.53,0,21.91,7,21.91,28.29Z"></path><path class="cls-3" d="M184.55,175.92s-22.34,1.92-39.15,1.92c-11.52,0-18.24-3.62-21.58-10.86q-11.85.21-23.8.31c4.86,21,17.8,30.76,42,30.76,18.72,0,43-4.89,43-4.89Z"></path><path class="cls-5" d="M251.78,132.09c-20.85-3.61-25.32-5.53-25.32-12.55,0-8.72,5.75-11.7,18.51-11.7s37.88,3.4,37.88,3.4l.42-19.36s-24.46-4.68-40-4.68c-21.06,0-39.79,8.94-39.79,33,0,22.55,11.92,27.66,35.33,31.49,12.08,2,18.42,3.56,21.63,6h0q12.57-1.75,25-3.93C282.44,140.61,272.51,135.72,251.78,132.09Z"></path><path class="cls-6" d="M285.45,153.71q-12.43,2.19-25,3.93c2.39,1.8,3.05,4.05,3.05,7.22,0,9.36-6,12.56-21.28,12.56-10.85,0-36.38-3.41-36.38-3.41L205,193.37s24.69,4.68,39.37,4.68c26.38,0,42.13-8.93,42.13-33.83a47.57,47.57,0,0,0-1-10.51Z"></path><path class="cls-1" d="M444.56,87c-24.35,0-35.22,9.55-36.47,30.75A479.55,479.55,0,0,0,464.92,88.5,159,159,0,0,0,444.56,87Z"></path><path class="cls-7" d="M464.92,88.5a479.55,479.55,0,0,1-56.83,29.24c-.09,1.4-.13,2.85-.13,4.35l0,75.54c11.33-1.24,23.09-5.82,23.09-21.43l-.08-46.45v-7.66c0-11.7,5.11-15.32,15.53-15.32,14.26,0,40,2.13,40,2.13l.26-5V92.38C484.41,91.85,475.55,89.9,464.92,88.5Z"></path><path class="cls-1" d="M337.17,132.09c-17.14,1.45-28.37,6.15-32.88,18a541.53,541.53,0,0,0,83.31-24v-4C387.6,97.84,377,87,351,87c-19.57,0-42.76,5.53-42.76,5.53l.84,16.38s25.75-2.13,40-2.13c10.42,0,15.53,3.62,15.53,15.32v7.66Z"></path><path class="cls-8" d="M304.29,150.1a39.89,39.89,0,0,0-2.22,14.12c0,22.13,10.63,33.83,31.7,33.83,17.23,0,34.26-7.87,34.26-7.87,5.92,4.64,11.61,6.75,19.59,7.51l0-71.62A541.53,541.53,0,0,1,304.29,150.1Zm60.33,24.33s-14.26,4.69-26.38,4.69c-8.94,0-13-6-13-15.54s4.89-14.25,14.68-15.1l24.68-2.35Z"></path></svg>
