<svg xmlns="http://www.w3.org/2000/svg" width="2269" height="1021" version="1.2" viewBox="0 0 2269 1021"><defs><linearGradient id="prefix__a" gradientUnits="userSpaceOnUse"/><linearGradient id="prefix__b" x1="1974" x2="2183.8" y1="-7.9" y2="-7.9" href="#prefix__a"><stop offset="0" stop-color="#00b8ea"/><stop offset=".9" stop-color="#0a2f72"/></linearGradient><linearGradient id="prefix__c" x1="1043.4" x2="1043.4" y1="623.4" y2="623.4" href="#prefix__a"><stop stop-color="#00b8ea"/><stop offset=".5" stop-color="#00b8ea"/><stop offset=".7" stop-color="#091e53"/><stop offset="1" stop-color="#091e53"/></linearGradient><linearGradient id="prefix__d" x1="-23.1" x2="1880" y1="3153.2" y2="3153.2" href="#prefix__a"><stop stop-color="#00b8ea"/><stop offset=".5" stop-color="#00b8ea"/><stop offset=".7" stop-color="#091e53"/><stop offset="1" stop-color="#091e53"/></linearGradient><linearGradient id="prefix__e" x1="1143.4" x2="1143.4" y1="607.7" y2="607.7" href="#prefix__a"><stop stop-color="#51bc4a"/><stop offset=".4" stop-color="#51bc4a"/><stop offset=".7" stop-color="#00a1d6"/><stop offset="1" stop-color="#00a1d6"/></linearGradient><linearGradient id="prefix__f" x1="-1" x2="1979.6" y1="3417.4" y2="3417.4" href="#prefix__a"><stop stop-color="#51bc4a"/><stop offset=".4" stop-color="#51bc4a"/><stop offset=".7" stop-color="#00a1d6"/><stop offset="1" stop-color="#00a1d6"/></linearGradient><linearGradient id="prefix__g" x1="-1" x2="1979.6" y1="3417.4" y2="3417.4" href="#prefix__a"><stop stop-color="#51bc4a"/><stop offset=".4" stop-color="#51bc4a"/><stop offset=".7" stop-color="#00a1d6"/><stop offset="1" stop-color="#00a1d6"/></linearGradient><linearGradient id="prefix__h" x1="1165.3" x2="1938.7" y1="3416" y2="3416" href="#prefix__a"><stop stop-color="#51bc4a"/><stop offset=".4" stop-color="#51bc4a"/><stop offset=".7" stop-color="#00a1d6"/><stop offset="1" stop-color="#00a1d6"/></linearGradient></defs><path fill="#6dc248" fill-rule="evenodd" stroke="#6dc248" stroke-width="1.2" d="M6.1 1018.2V906.3h36.8c34.3 0 42.6 19.3 42.6 54.1 0 35.4-7.5 57.8-42.6 57.8zm36.8-96.1H23.3v80.1h19.6c21.5 0 24.7-17.3 24.7-41.8 0-24.5-3.2-38.3-24.7-38.3z"/><path fill="#6dc248" stroke="#6dc248" stroke-width="1.2" d="M110.5 906.3h67.1v15.8h-49.9v31.7h40.6v15.7h-40.6v32.7h49.9v16h-67.1z"/><path fill="#6dc248" fill-rule="evenodd" stroke="#6dc248" stroke-width="1.2" d="M218.5 983.4v34.8h-17.2V906.3h39c24.2 0 36.2 12.4 36.2 37.6 0 25.3-12 39.5-36.2 39.5zm21.6-15.7c12.9 0 18.6-8.3 18.6-23.8 0-15.4-5.7-21.9-18.6-21.9h-21.6v45.7z"/><path fill="#6dc248" stroke="#6dc248" stroke-width="1.2" d="M297.9 1018.2V906.3h17.3v95.7h42.4v16.2z"/><path fill="#6dc248" fill-rule="evenodd" stroke="#6dc248" stroke-width="1.2" d="M370 962.8c0-37.4 10.1-58.3 43.4-58.3 33.2 0 43.2 20.7 43.2 58.3 0 38.1-10 57.2-43.2 57.2-33.4 0-43.4-19.4-43.4-57.2zm68.7 0c0-27.8-4.8-42.5-25.3-42.5s-25.5 14.7-25.5 42.5c0 28 4.8 41.4 25.5 41.4 20.6 0 25.3-13 25.3-41.4z"/><path fill="#6dc248" stroke="#6dc248" stroke-width="1.2" d="M516.3 1018.2h-17.4v-46.1l-33.5-65.8h19.5l22.5 48 22.7-48h19.3l-33.1 65.8zM567.2 906.3h30l23.8 87.4 23.8-87.4h30.1v111.9h-17.4v-91.8h-2.3l-25.2 87.2h-18l-25.2-87.2h-2.3v91.8h-17.3zM704.1 906.3h67.2v15.8h-49.9v31.7H762v15.7h-40.6v32.7h49.9v16h-67.2zM794.9 906.3h30.2l32.3 95.9h2.3v-95.9h17.2v111.9h-29.5l-33.1-96.1h-2.1v96.1h-17.3zM896.1 906.3h77.7v16.2h-30v95.7h-17.4v-95.7h-30.3zM1031.9 906.3h30l23.8 87.4 23.7-87.4h30.2v111.9h-17.4v-91.8h-2.4l-25.1 87.2h-18.1l-25.1-87.2h-2.4v91.8h-17.2z"/><path fill="#6dc248" fill-rule="evenodd" stroke="#6dc248" stroke-width="1.2" d="M1185.9 906.3h34.3l26.5 111.9h-17.4l-5.8-24h-40.9l-5.7 24h-17.3zm.2 71.9h34l-13-56.7h-7.8z"/><path fill="#6dc248" stroke="#6dc248" stroke-width="1.2" d="M1266.7 906.3h30.2l32.3 95.9h2.3v-95.9h17.3v111.9h-29.6l-33.1-96.1h-2.1v96.1h-17.3z"/><path fill="#6dc248" fill-rule="evenodd" stroke="#6dc248" stroke-width="1.2" d="M1395.2 906.3h34.4l26.4 111.9h-17.4l-5.8-24H1392l-5.8 24H1369zm.1 71.9h34.1l-13.1-56.7h-7.8z"/><path fill="#6dc248" stroke="#6dc248" stroke-width="1.2" d="M1517.7 959.4h30.3v56.8c-1.4.4-22.7 3.8-35.6 3.8-33.9 0-42.6-20.6-42.6-57.7 0-39.2 10.3-57.8 42-57.8q16.3 0 36.2 4.4l-.6 14.4q-18.8-2.6-33-2.6c-21.3 0-26.7 10.1-26.7 41.6 0 30.4 4.5 41.9 26.3 41.9 7 0 15-1 16.9-1.5v-27.3h-13.2zM1574.4 906.3h67.2v15.8h-49.9v31.7h40.5v15.7h-40.5v32.7h49.9v16h-67.2z"/><path fill="#6dc248" fill-rule="evenodd" stroke="#6dc248" stroke-width="1.2" d="M1682.4 978.3v39.9h-17.2V906.3h40.4c23.4 0 36 10.8 36 35.6 0 15.8-6 26.8-17.4 32.3l17.6 44h-19l-15.4-39.9zm23.2-56.3h-23.2v40.6h23.5c13.1 0 18-8.9 18-20.5 0-12.8-5.9-20.1-18.3-20.1z"/><path fill="url(#prefix__b)" d="M2058.8 405.2 1974 156.5 2183.8.1z"/><path fill="#6dc248" d="m2160.3 171.5 108.9 77-133.2 1.8zM1964.6 128.4 1921.9 2.8l108.3 76.6z"/><path fill="#0a2f72" d="m1974 156.5 32.6 95.6-163.7 1.8z"/><path fill="#00b8ea" d="M332.6 658.1q0 6.5-.4 12.7H240q.7-4.7.7-10.1c0-29.8-14.5-39.2-98.8-52.8C48.3 592.6.6 572.2.6 482c0-96.2 74.9-132 159.2-132q62.1 0 160 18.8l-1.7 77.4q-100.4-13.6-151.5-13.6c-51.1 0-74 11.9-74 46.8 0 28.1 17.8 35.7 101.2 50.2C296 547.5 332.6 573 332.6 658.1z"/><path fill="#6dc248" d="M332.2 670.8C327 760.7 265 793.4 164.1 793.4q-58.8 0-157.5-18.7l3.4-77.4q102.1 13.6 145.5 13.6c55.4 0 80.2-10.4 84.5-40.1h92.2z"/><path fill="#00b8ea" fill-rule="evenodd" d="M750 610.5H486.2c.3 23.7 3.6 43.2 10.7 58.7-31.6.5-63.3.9-95.2 1.2-6.2-26.9-9.1-58.5-9.1-94.8 0-155.8 67.2-226.4 184.6-226.4 119.2 0 178.8 62.1 178.8 194.9zM664.9 539c0-85.1-25.6-113.2-87.7-113.2-63 0-91 31.5-91.9 113.2z"/><path fill="#6dc248" d="M741.5 773.9q-97 19.5-171.9 19.5c-96.7 0-148.5-39-167.9-123 31.9-.3 63.6-.7 95.2-1.2 13.4 28.9 40.2 43.4 86.3 43.4q67.2 0 156.6-7.7z"/><path fill="url(#prefix__c)" d="M1043.4 631.8z"/><path fill="url(#prefix__d)" d="M1143.4 616.1q-49.7 8.7-100 15.7c-12.8-9.7-38.2-16.1-86.6-23.9-93.6-15.3-141.3-35.7-141.3-125.9 0-96.2 75-132 159.2-132q62.1 0 160 18.8l-1.7 77.4q-100.4-13.6-151.5-13.6c-51 0-74 11.9-74 46.8 0 28.1 17.8 35.7 101.2 50.2 83 14.5 122.7 34.1 134.7 86.5z"/><path fill="url(#prefix__e)" d="M1143.4 616.1z"/><path fill="url(#prefix__f)" d="M1143.4 616.1c2.8 12.1 4.1 26 4.1 42 0 99.6-63 135.3-168.5 135.3q-58.8 0-157.5-18.7l3.4-77.4q102.1 13.6 145.5 13.6c61.3 0 85.2-12.8 85.2-50.2 0-12.7-2.7-21.7-12.2-28.9q50.3-7 100-15.7z"/><path fill="#0a2f72" d="M1861.3 355.2c-74.9 45.1-150.7 83.8-227.3 117 5-84.8 48.4-123 145.8-123 26.9 0 55.5 2.6 81.5 6z"/><path fill="#00a1d6" d="M1948.5 370.8V417l-1 19.8q-103-8.5-160-8.5c-41.7 0-62.1 14.5-62.1 61.3v30.7l.3 185.7c0 62.5-47 80.8-92.4 85.7l.2-302.1q0-9 .5-17.4c76.6-33.2 152.4-71.9 227.3-117 42.5 5.6 78 13.4 87.2 15.6z"/><path fill="#0a2f72" d="M1460.1 520.3v-30.7c0-46.8-20.4-61.3-62.1-61.3q-57.1 0-160 8.5l-3.4-65.5q92.7-22.1 171-22.1c103.9 0 146.4 43.4 146.4 140.4v15.9c-109.2 41.6-220.2 72.8-333.2 96.1 18-47.4 62.9-66.2 131.5-72z"/><path fill="url(#prefix__g)" fill-rule="evenodd" d="m1552 505.5.1 286.5c-31.9-3-54.7-11.5-78.4-30q-68.1 31.4-137 31.4c-84.3 0-126.8-46.8-126.8-135.3 0-22.2 3-40.9 8.9-56.5 113-23.3 224-54.5 333.2-96.1zm-91.9 80.3-98.7 9.4c-39.2 3.3-58.8 22.1-58.8 60.4s16.2 62.1 52 62.1q48.5 0 105.5-18.7z"/><path fill="url(#prefix__h)" d="M1552.1 505.5V792l-.1-286.5z"/></svg>